<svg width="86" height="78" viewBox="0 0 86 78" fill="none" xmlns="http://www.w3.org/2000/svg">
					<path fill-rule="evenodd" clip-rule="evenodd" d="M70.0741 35.0204C70.0741 54.3616 54.3875 70.0408 35.037 70.0408C15.6866 70.0408 0 54.3616 0 35.0204C0 15.6792 15.6866 0 35.037 0C54.3875 0 70.0741 15.6792 70.0741 35.0204ZM57.3333 35.0204C57.3333 47.3285 47.3509 57.3061 35.037 57.3061C22.7231 57.3061 12.7407 47.3285 12.7407 35.0204C12.7407 22.7123 22.7231 12.7347 35.037 12.7347C47.3509 12.7347 57.3333 22.7123 57.3333 35.0204Z" fill="#282C34"></path>
					<path d="M86 57.3061C86 59.9436 83.8609 62.0816 81.2222 62.0816C78.5835 62.0816 76.4444 59.9436 76.4444 57.3061C76.4444 54.6687 78.5835 52.5306 81.2222 52.5306C83.8609 52.5306 86 54.6687 86 57.3061Z" fill="#282C34"></path>
					<path d="M86 73.2245C86 75.8619 83.8609 78 81.2222 78C78.5835 78 76.4444 75.8619 76.4444 73.2245C76.4444 70.5871 78.5835 68.449 81.2222 68.449C83.8609 68.449 86 70.5871 86 73.2245Z" fill="#282C34"></path>
				</svg>