<?xml version="1.0" encoding="utf-8"?>
<!-- Generator: Adobe Illustrator 28.1.0, SVG Export Plug-In . SVG Version: 6.00 Build 0)  -->
<svg version="1.1" id="Слой_1" xmlns="http://www.w3.org/2000/svg" xmlns:xlink="http://www.w3.org/1999/xlink" x="0px" y="0px"
	 viewBox="0 0 652 652" style="enable-background:new 0 0 652 652;" xml:space="preserve">
<style type="text/css">
	.st0{fill-rule:evenodd;clip-rule:evenodd;fill:#FFFFFF;}
	.st1{fill-rule:evenodd;clip-rule:evenodd;fill:#282C34;}
	.st2{fill:#282C34;}
</style>
<rect class="st0" width="652" height="652"/>
<g>
	<path class="st1" d="M464.52,305.64c0,98.95-80.26,179.17-179.26,179.17c-99,0-179.26-80.22-179.26-179.17
		s80.26-179.17,179.26-179.17C384.26,126.47,464.52,206.68,464.52,305.64z M399.33,305.64c0,62.97-51.07,114.02-114.07,114.02
		s-114.07-51.05-114.07-114.02s51.07-114.02,114.07-114.02S399.33,242.67,399.33,305.64z"/>
	<path class="st2" d="M546,419.66c0,13.49-10.94,24.43-24.44,24.43c-13.5,0-24.44-10.94-24.44-24.43
		c0-13.49,10.94-24.43,24.44-24.43C535.06,395.23,546,406.17,546,419.66z"/>
	<path class="st2" d="M546,501.1c0,13.49-10.94,24.43-24.44,24.43c-13.5,0-24.44-10.94-24.44-24.43c0-13.49,10.94-24.43,24.44-24.43
		C535.06,476.67,546,487.61,546,501.1z"/>
</g>
</svg>
