<svg id="Layer_1" enable-background="new 0 0 512 512" viewBox="0 0 512 512" xmlns="http://www.w3.org/2000/svg"><g><g clip-rule="evenodd" fill-rule="evenodd"><path d="m281 231v-155h-50v155h-221v49.999h221v155.001h50v-155.001h221v-49.999z" fill="#ff5a58"></path><path d="m231 231v-155h-40.002v61.61 46.189 7.199h-67.533-113.465v40.002z" fill="#fff"></path><path d="m190.998 137.61v-61.61h-106.711z" fill="#60a4ff"></path><path d="m190.998 137.61-106.711-61.61h-54.287c-5.761 0-10.973 2.468-14.63 6.401l175.629 101.399v-46.19z" fill="#fff"></path><path d="m190.998 183.799-175.63-101.4c-3.326 3.576-5.368 8.361-5.368 13.601v29.49l113.465 65.509h67.534v-7.2z" fill="#ff5a58"></path><path d="m123.465 190.998-113.465-65.508v65.508z" fill="#60a4ff"></path><path d="m231 280.999h-221v40.002h113.465 67.533v7.199 46.189 61.611h40.002z" fill="#fff"></path><path d="m123.465 321.001h-113.465v65.509z" fill="#60a4ff"></path><path d="m123.465 321.001-113.465 65.509v29.49c0 5.239 2.042 10.025 5.37 13.599l175.628-101.399v-7.199z" fill="#fff"></path><path d="m190.998 328.2-175.629 101.4c3.658 3.931 8.87 6.4 14.631 6.4h54.287l106.712-61.611v-46.189z" fill="#ff5a58"></path><path d="m190.998 374.389-106.711 61.611h106.711z" fill="#60a4ff"></path><path d="m281 280.999v155.001h40.001v-61.611-46.189-7.199h67.534 113.465v-40.002z" fill="#fff"></path><path d="m321.001 374.389v61.611h106.712z" fill="#60a4ff"></path><path d="m321.001 374.389 106.712 61.611h54.287c5.761 0 10.973-2.468 14.63-6.401l-175.629-101.399z" fill="#fff"></path><path d="m321.001 328.2 175.63 101.4c3.327-3.575 5.369-8.361 5.369-13.6v-29.49l-113.465-65.509h-67.534z" fill="#ff5a58"></path><path d="m388.535 321.001 113.465 65.509v-65.509z" fill="#60a4ff"></path><path d="m281 231h221v-40.002h-113.465-67.534v-7.199-46.189-61.61h-40.001z" fill="#fff"></path><path d="m388.535 190.998h113.465v-65.508z" fill="#60a4ff"></path><path d="m388.535 190.998 113.465-65.508v-29.49c0-5.24-2.042-10.025-5.37-13.599l-175.629 101.398v7.199z" fill="#fff"></path><path d="m321.001 183.799 175.63-101.4c-3.658-3.931-8.87-6.4-14.631-6.4h-54.287l-106.712 61.61z" fill="#ff5a58"></path><path d="m321.001 137.61 106.712-61.61h-106.712z" fill="#60a4ff"></path></g><g><path d="m482 66h-452c-16.542 0-30 13.458-30 30v320c0 16.542 13.458 30 30 30h452c16.542 0 30-13.458 30-30v-320c0-16.542-13.458-30-30-30zm-51.608 360-99.391-57.384v-23.096l139.395 80.48zm40.004-340-139.395 80.479v-23.096l99.39-57.383zm21.604 283.19-66.145-38.189h66.145zm0-272.569v23.095l-106.143 61.282h-40.003zm0 46.189v38.188h-66.144zm0 168.191h-170.999c-5.522 0-10 4.477-10 10v104.999h-20.001v-135h201zm-160.999 114.998v-34.29l59.392 34.291zm14.851-94.998h40.003l106.145 61.282v23.095zm44.54-245.001-59.391 34.29v-34.29zm-79.391 0v104.999c0 5.523 4.478 10 10 10h170.999v20.001h-201v-135zm-40.001 0v145c0 5.523 4.478 10 10 10h211v30h-211c-5.522 0-10 4.477-10 10v145h-30v-145c0-5.523-4.477-10-10-10h-211v-30h211c5.523 0 10-4.477 10-10v-145zm-229.396 340 139.394-80.479v23.095l-99.391 57.384zm17.601-306.744c1.575.909 3.294 1.341 4.991 1.341 3.456 0 6.817-1.793 8.669-5.001 2.762-4.783 1.123-10.899-3.66-13.66l-27.601-15.936h40.004l99.39 57.384v23.096l-33.841-19.538c-4.781-2.76-10.898-1.123-13.66 3.66s-1.123 10.899 3.66 13.66l28.989 16.737h-40.003l-106.143-61.283v-23.096zm-39.205 211.745h66.145l-66.145 38.189zm0-188.191 66.144 38.188h-66.144zm0 249.473 106.144-61.283h40.004l-146.148 84.379zm160.999-.574v34.29h-59.392zm10-80.708h-170.999v-20.001h201v135h-20.001v-104.999c0-5.523-4.478-10-10-10zm30.001-225.001v135h-201v-20.001h170.998c5.523 0 10-4.477 10-10v-104.999zm-40.001 34.29-59.392-34.29h59.391v34.29z"></path><path d="m103.184 143.1c5.523 0 10-4.477 10-10s-4.477-10-10-10h-.007c-5.523 0-9.996 4.477-9.996 10s4.48 10 10.003 10z"></path></g></g></svg>