<?xml version="1.0" encoding="UTF-8"?>
<svg id="Livello_1" data-name="Livello 1" xmlns="http://www.w3.org/2000/svg" viewBox="0 0 651.66 651.66">
  <defs>
    <style>
      .cls-1 {
        fill: #fff;
      }

      .cls-2 {
        fill: #f39200;
      }

      .cls-3 {
        fill: #1d1d1b;
      }
    </style>
  </defs>
  <rect class="cls-3" width="651.66" height="651.66"/>
  <path class="cls-1" d="m367.66,304.14l-14.34-18.14-60.33,65.45,14.11,17.29,127.59,156.29h107.56l-174.61-220.88Zm62.5-177.5l-176.43,185.9h0s-.03.04-.03.04l-14.2,14.96,5.12,106.42,9.11-9.51,53.38-55.72,2.39-2.49,51.22-54.63,6.94-7.47,164.93-177.5h-102.44Zm-176.46,185.94l-91.6,88.57v123.87h91.63v-212.47l-.03.03Z"/>
  <polygon class="cls-2" points="253.72 126.64 253.72 287.61 162.1 371.82 162.1 174.07 129.77 174.07 129.77 126.64 253.72 126.64"/>
</svg>